# xmcd
#
# Track frame offsets:
#	150
#	25647
#	36046
#	44807
#	56405
#	68505
#	88207
#	99249
#	111282
#	120361
#	134276
#	145482
#	157617
#	180376
#	193133
#	203426
#	213371
#	227506
#	243251
#
# Disc length: 3467
#
# Revision: 2
# Processed by: cddbd v1.5.1PL0 Copyright (c) Steve Scherf et al.
# Submitted via: audiograbber 1.80
# Normalized: r1:DSETVAR1
#
DISCID=f50d8913
DTITLE=Various Artist - Memories are made of these...
DYEAR=1900
DGENRE=
TTITLE0=Kool and The Gang - Cherish
TTITLE1=Louis Armstrong - What A Wonderful World
TTITLE2=Al Jarreau - Ain't No Sunshine
TTITLE3=John Travolta - Sandy
TTITLE4=The Tokens - The Lion Sleeps Tonight (Wimoweh)
TTITLE5=Rupert Homes - Escape (The Pina Colada Song)
TTITLE6=Cubby Checker - Limbo Rock
TTITLE7=Chuck Berry - Johnny B.goode
TTITLE8=The Dixie Cups - Iko Iko
TTITLE9=Van Morrison - Brown Eyed Girl
TTITLE10=Little Eva - The Locomotion
TTITLE11=Brian Hyland - Sealed With A Kiss
TTITLE12=The Chi - Lites
TTITLE13=Lee Hazlewood - These Boots Are Made For Walking
TTITLE14=Dean Martin - Memories Are Made Of This
TTITLE15=The Champs - Tequilla
TTITLE16=Jose Feliciano - Light My Fire
TTITLE17=Aretha Franklin - I Say A Little Prayer
TTITLE18=The Righteous Brother - You've Lost That Lovin' Feeling
EXTD=Submitted by From [ D e v i l i c ] รยง
EXTT0=
EXTT1=
EXTT2=
EXTT3=
EXTT4=
EXTT5=
EXTT6=
EXTT7=
EXTT8=
EXTT9=
EXTT10=
EXTT11=
EXTT12=
EXTT13=
EXTT14=
EXTT15=
EXTT16=
EXTT17=
EXTT18=
PLAYORDER=
